<svg viewBox="0 0 16 16"><path fill="#828282" d="m 15.871209,5.2302491 c 0,-3.4558544 -2.398662,-4.46884591 -2.398662,-4.46884591 C 12.263019,0.23698425 10.185726,0.01659554 8.0289687,0 H 7.9755245 C 5.8180643,0.01659554 3.7421771,0.23698425 2.5326493,0.76140319 c 0,0 -2.39866245,1.01299151 -2.39866245,4.46884591 0,0.7912752 -0.0161739,1.7378845 0.0105482,2.7409187 0.0871986,3.3801792 0.65680177,6.7105712 3.96682935,7.5376922 1.525974,0.381034 2.8367646,0.461356 3.8922886,0.406259 1.9141482,-0.09957 2.988659,-0.645234 2.988659,-0.645234 l -0.06329,-1.311048 c 0,0 -1.3677512,0.406923 -2.9035702,0.3578 -1.522458,-0.04912 -3.1285984,-0.15467 -3.3747232,-1.919108 a 3.8669729,3.6503541 0 0 1 -0.033755,-0.494547 c 0,0 1.4943294,0.345187 3.3873811,0.426837 1.15749,0.04979 2.2432533,-0.06439 3.3458913,-0.187861 2.114565,-0.238312 3.955579,-1.468373 4.186936,-2.5922228 0.363561,-1.7690841 0.334026,-4.3194861 0.334026,-4.3194861 z m -2.829732,4.453578 H 11.285552 V 5.6219038 c 0,-0.8563297 -0.381845,-1.2904689 -1.144832,-1.2904689 -0.8438567,0 -1.2671915,0.5151254 -1.2671915,1.5347551 v 2.223138 h -1.74608 V 5.8655262 c 0,-1.0196297 -0.4233347,-1.5347551 -1.2671913,-1.5347551 -0.7629871,0 -1.1448321,0.434803 -1.1448321,1.2904688 V 9.6831633 H 2.9595001 V 5.4990968 c 0,-0.8556658 0.2306541,-1.535419 0.6940721,-2.0379318 0.4781854,-0.5031767 1.1033424,-0.7607394 1.8803938,-0.7607394 0.8987072,0 1.5794182,0.3259363 2.0294752,0.9784728 L 8.0001369,4.3712642 8.4375359,3.6788984 C 8.8875928,3.0263619 9.5683038,2.7004256 10.467011,2.7004256 c 0.776348,0 1.402208,0.2575627 1.880393,0.7607394 0.462715,0.5025128 0.69337,1.182266 0.69337,2.0379318 v 4.1847303 z"/></svg>
