<svg viewBox="0 0 16 16"><path fill="#828282" d="M23.193 7.879c0-5.206-3.411-6.732-3.411-6.732C18.062.357 15.108.025 12.041 0h-.076c-3.068.025-6.02.357-7.74 1.147c0 0-3.411 1.526-3.411 6.732c0 1.192-.023 2.618.015 4.129c.124 5.092.934 10.109 5.641 11.355c2.17.574 4.034.695 5.535.612c2.722-.15 4.25-.972 4.25-.972l-.09-1.975s-1.945.613-4.129.539c-2.165-.074-4.449-.233-4.799-2.891a5.499 5.499 0 0 1-.048-.745s2.125.52 4.817.643c1.646.075 3.19-.097 4.758-.283c3.007-.359 5.625-2.212 5.954-3.905c.517-2.665.475-6.507.475-6.507zm-4.024 6.709h-2.497V8.469c0-1.29-.543-1.944-1.628-1.944c-1.2 0-1.802.776-1.802 2.312v3.349h-2.483v-3.35c0-1.536-.602-2.312-1.802-2.312c-1.085 0-1.628.655-1.628 1.944v6.119H4.832V8.284c0-1.289.328-2.313.987-3.07c.68-.758 1.569-1.146 2.674-1.146c1.278 0 2.246.491 2.886 1.474L12 6.585l.622-1.043c.64-.983 1.608-1.474 2.886-1.474c1.104 0 1.994.388 2.674 1.146c.658.757.986 1.781.986 3.07v6.304z"/></svg>
