<svg viewBox="0 0 16 16">
  <path fill="#828282" d="M93.726468,59.48576c0,-7.58894 -5.29365,-9.81393 -5.29365,-9.81393c-5.19389,-2.24078 -18.98912,-2.21741 -24.13309,0c0,0 -5.29365,2.22507 -5.29365,9.81393c0,9.03324 -0.5485,20.25245 8.77566,22.57132c3.3656,0.83518 6.25759,1.01482 8.58445,0.8899c4.22163,-0.21857 6.59,-1.41326 6.59,-1.41326l-0.14111,-2.881c0,0 -3.01681,0.89022 -6.40728,0.78859c-3.35745,-0.1092 -6.89762,-0.34348 -7.44612,-4.21593c-0.04992,-0.34356 -0.07472,-0.70268 -0.07472,-1.08517c7.11362,1.63159 13.17993,0.7105 14.85046,0.52312c4.66203,-0.52312 8.72582,-3.22448 9.24103,-5.69173c0.81459,-3.88792 0.74802,-9.48584 0.74802,-9.48584l0,0zm-6.24103,9.77484l-3.87258,0l0,-8.91605c0,-3.88026 -5.31887,-4.02863 -5.31887,0.53876l0,4.87968l-3.84745,0l0,-4.87976c0,-4.56739 -5.31861,-4.41902 -5.31861,-0.53876l0,8.91605l-3.88081,0c0,-9.53274 -0.43209,-11.54722 1.52907,-13.66292c2.15238,-2.25641 6.63161,-2.4047 8.62606,0.47622l0.96403,1.52246l0.96394,-1.52246c2.00285,-2.89664 6.49032,-2.717 8.62605,-0.47622c1.96966,2.13142 1.52917,4.138 1.52917,13.663l0,0z"/>
</svg>
