<svg viewBox="0 0 16 16">
  <path fill="#828282" d="m460.491,180.711c0,-95.137 -62.347,-123.03 -62.347,-123.03c-61.172,-28.091 -223.648,-27.798 -284.232,0c0,0 -62.347,27.894 -62.347,123.03c0,113.243 -6.46,253.89 103.357,282.96c39.639,10.47 73.7,12.722 101.105,11.156c49.721,-2.74 77.615,-17.717 77.615,-17.717l-1.662,-36.117c0,0 -35.531,11.16 -75.463,9.886c-39.543,-1.369 -81.238,-4.306 -87.698,-52.852c-0.588,-4.307 -0.88,-8.809 -0.88,-13.604c83.782,20.454 155.229,8.907 174.904,6.558c54.908,-6.558 102.77,-40.423 108.838,-71.353c9.594,-48.74 8.81,-118.917 8.81,-118.917l0,0zm-73.505,122.54l-45.61,0l0,-111.774c0,-48.644 -62.644,-50.504 -62.644,6.754l0,61.173l-45.314,0l0,-61.174c0,-57.258 -62.641,-55.398 -62.641,-6.754l0,111.774l-45.707,0c0,-119.505 -5.089,-144.759 18.009,-171.282c25.35,-28.287 78.105,-30.146 101.595,5.97l11.354,19.086l11.353,-19.086c23.589,-36.313 76.441,-34.061 101.595,-5.97c23.198,26.72 18.01,51.875 18.01,171.283l0,0z"/>
</svg>
